<svg width="19" height="20" viewBox="0 0 19 20" fill="none" xmlns="http://www.w3.org/2000/svg">
<path fill-rule="evenodd" clip-rule="evenodd" d="M5.56 0H13.941C17.03 0 18.75 1.78 18.75 4.83V15.16C18.75 18.26 17.03 20 13.941 20H5.56C2.52 20 0.75 18.26 0.75 15.16V4.83C0.75 1.78 2.52 0 5.56 0ZM5.83 4.66V4.65H8.819C9.25 4.65 9.6 5 9.6 5.429C9.6 5.87 9.25 6.22 8.819 6.22H5.83C5.399 6.22 5.05 5.87 5.05 5.44C5.05 5.01 5.399 4.66 5.83 4.66ZM5.83 10.74H13.67C14.1 10.74 14.45 10.39 14.45 9.96C14.45 9.53 14.1 9.179 13.67 9.179H5.83C5.399 9.179 5.05 9.53 5.05 9.96C5.05 10.39 5.399 10.74 5.83 10.74ZM5.83 15.31H13.67C14.069 15.27 14.37 14.929 14.37 14.53C14.37 14.12 14.069 13.78 13.67 13.74H5.83C5.53 13.71 5.24 13.85 5.08 14.11C4.92 14.36 4.92 14.69 5.08 14.95C5.24 15.2 5.53 15.35 5.83 15.31Z" fill="#458CFF"/>
</svg>
